<svg xmlns="http://www.w3.org/2000/svg" xmlns:xlink="http://www.w3.org/1999/xlink" width="500" zoomAndPan="magnify" viewBox="0 0 375 374.999991" height="500" preserveAspectRatio="xMidYMid meet" version="1.0"><defs><g/><clipPath id="658dd52133"><path d="M 161 130 L 214 130 L 214 224.917969 L 161 224.917969 Z M 161 130 " clip-rule="nonzero"/></clipPath><clipPath id="8787ff64db"><path d="M 138.679688 113.167969 L 236.179688 113.167969 L 236.179688 168 L 138.679688 168 Z M 138.679688 113.167969 " clip-rule="nonzero"/></clipPath></defs><rect x="-37.5" width="450" fill="#ffffff" y="-37.499999" height="449.999989" fill-opacity="1"/><rect x="-37.5" width="450" fill="#ffffff" y="-37.499999" height="449.999989" fill-opacity="1"/><g clip-path="url(#658dd52133)"><path fill="#242424" d="M 184.640625 170.832031 C 184.816406 170.78125 184.960938 170.683594 185.070312 170.535156 C 185.179688 170.390625 185.234375 170.226562 185.234375 170.046875 L 185.234375 131.03125 C 185.234375 130.769531 185.140625 130.546875 184.957031 130.363281 C 184.773438 130.175781 184.546875 130.085938 184.285156 130.085938 L 183.25 130.085938 C 182.996094 130.085938 182.761719 130.15625 182.546875 130.296875 C 182.335938 130.441406 182.179688 130.628906 182.082031 130.867188 L 161.726562 180.269531 C 161.28125 181.347656 161.253906 182.4375 161.644531 183.539062 L 167.375 199.644531 L 165.613281 199.644531 C 165.382812 199.644531 165.164062 199.6875 164.953125 199.773438 C 164.742188 199.863281 164.554688 199.988281 164.394531 200.148438 C 164.234375 200.308594 164.109375 200.496094 164.019531 200.707031 C 163.933594 200.917969 163.890625 201.136719 163.890625 201.367188 L 163.890625 208.367188 C 163.890625 208.59375 163.933594 208.8125 164.019531 209.023438 C 164.109375 209.234375 164.234375 209.421875 164.394531 209.582031 C 164.554688 209.746094 164.742188 209.871094 164.953125 209.957031 C 165.164062 210.042969 165.382812 210.089844 165.613281 210.089844 L 166.859375 210.089844 L 166.859375 223.019531 C 166.859375 223.25 166.902344 223.46875 166.992188 223.683594 C 167.078125 223.894531 167.203125 224.082031 167.367188 224.246094 C 167.53125 224.410156 167.71875 224.535156 167.929688 224.621094 C 168.144531 224.710938 168.363281 224.753906 168.59375 224.753906 L 206.257812 224.753906 C 206.488281 224.753906 206.710938 224.710938 206.921875 224.621094 C 207.136719 224.535156 207.324219 224.410156 207.484375 224.246094 C 207.648438 224.082031 207.773438 223.894531 207.863281 223.683594 C 207.949219 223.46875 207.996094 223.25 207.996094 223.019531 L 207.996094 213.246094 C 207.996094 213.027344 207.917969 212.835938 207.761719 212.679688 C 207.605469 212.523438 207.414062 212.445312 207.195312 212.445312 C 206.972656 212.445312 206.785156 212.523438 206.628906 212.679688 C 206.472656 212.835938 206.394531 213.027344 206.394531 213.246094 L 206.394531 223.019531 C 206.394531 223.109375 206.347656 223.152344 206.257812 223.152344 L 168.59375 223.152344 C 168.503906 223.152344 168.457031 223.109375 168.457031 223.019531 L 168.457031 210.089844 L 209.242188 210.089844 C 209.46875 210.089844 209.6875 210.042969 209.898438 209.957031 C 210.109375 209.871094 210.296875 209.746094 210.457031 209.582031 C 210.621094 209.421875 210.746094 209.234375 210.832031 209.023438 C 210.917969 208.8125 210.964844 208.59375 210.964844 208.367188 L 210.964844 201.367188 C 210.964844 201.136719 210.917969 200.917969 210.832031 200.707031 C 210.746094 200.496094 210.621094 200.308594 210.457031 200.148438 C 210.296875 199.988281 210.109375 199.863281 209.898438 199.773438 C 209.6875 199.6875 209.46875 199.644531 209.242188 199.644531 L 207.480469 199.644531 L 213.207031 183.539062 C 213.597656 182.4375 213.570312 181.347656 213.128906 180.269531 L 192.769531 130.867188 C 192.671875 130.628906 192.519531 130.441406 192.304688 130.296875 C 192.09375 130.15625 191.859375 130.085938 191.601562 130.085938 L 190.566406 130.085938 C 190.304688 130.085938 190.082031 130.175781 189.894531 130.363281 C 189.710938 130.546875 189.617188 130.769531 189.617188 131.03125 L 189.617188 170.042969 C 189.621094 170.226562 189.675781 170.390625 189.785156 170.539062 C 189.894531 170.683594 190.039062 170.78125 190.210938 170.832031 C 190.738281 170.988281 191.242188 171.1875 191.734375 171.425781 C 192.226562 171.667969 192.691406 171.949219 193.136719 172.265625 C 193.582031 172.585938 193.996094 172.941406 194.378906 173.328125 C 194.761719 173.714844 195.113281 174.132812 195.425781 174.582031 C 195.742188 175.027344 196.015625 175.5 196.253906 175.992188 C 196.488281 176.484375 196.679688 176.996094 196.832031 177.519531 C 196.980469 178.046875 197.085938 178.582031 197.148438 179.125 C 197.207031 179.667969 197.222656 180.210938 197.191406 180.757812 C 196.929688 185.566406 192.621094 189.796875 187.808594 189.980469 C 187.21875 190.003906 186.632812 189.972656 186.046875 189.890625 C 185.460938 189.804688 184.890625 189.671875 184.328125 189.484375 C 183.769531 189.296875 183.230469 189.058594 182.710938 188.773438 C 182.195312 188.492188 181.707031 188.160156 181.246094 187.789062 C 180.789062 187.414062 180.367188 187.003906 179.984375 186.554688 C 179.601562 186.105469 179.261719 185.625 178.964844 185.113281 C 178.667969 184.601562 178.421875 184.066406 178.222656 183.511719 C 178.023438 182.957031 177.875 182.386719 177.777344 181.804688 C 177.679688 181.21875 177.636719 180.632812 177.648438 180.042969 C 177.65625 179.453125 177.71875 178.867188 177.835938 178.285156 C 177.953125 177.707031 178.121094 177.144531 178.335938 176.59375 C 178.554688 176.046875 178.820312 175.519531 179.136719 175.019531 C 179.449219 174.519531 179.804688 174.050781 180.203125 173.613281 C 180.601562 173.175781 181.035156 172.78125 181.507812 172.421875 C 181.976562 172.0625 182.476562 171.75 183.003906 171.484375 C 183.527344 171.21875 184.074219 171 184.640625 170.832031 Z M 209.363281 201.367188 L 209.363281 208.367188 C 209.363281 208.449219 209.320312 208.488281 209.242188 208.488281 L 165.613281 208.488281 C 165.53125 208.488281 165.492188 208.449219 165.492188 208.367188 L 165.492188 201.367188 C 165.492188 201.285156 165.53125 201.246094 165.613281 201.242188 L 209.242188 201.242188 C 209.320312 201.246094 209.363281 201.285156 209.363281 201.367188 Z M 209.363281 201.367188 " fill-opacity="1" fill-rule="nonzero"/></g><path fill="#242424" d="M 172.679688 121.253906 C 170.941406 121.96875 169.265625 122.804688 167.648438 123.761719 C 166.035156 124.722656 164.496094 125.789062 163.035156 126.972656 C 161.574219 128.152344 160.210938 129.433594 158.933594 130.8125 C 157.660156 132.195312 156.492188 133.660156 155.433594 135.207031 C 154.371094 136.757812 153.425781 138.375 152.601562 140.0625 C 151.773438 141.75 151.074219 143.488281 150.5 145.277344 C 149.925781 147.0625 149.484375 148.886719 149.175781 150.738281 C 148.867188 152.589844 148.691406 154.457031 148.652344 156.332031 L 145.398438 156.332031 C 145.171875 156.332031 144.949219 156.378906 144.738281 156.464844 C 144.523438 156.554688 144.339844 156.679688 144.175781 156.839844 C 144.011719 157.003906 143.886719 157.191406 143.800781 157.402344 C 143.710938 157.613281 143.667969 157.835938 143.667969 158.066406 L 143.667969 166.15625 C 143.667969 166.382812 143.710938 166.605469 143.800781 166.816406 C 143.886719 167.03125 144.011719 167.214844 144.175781 167.378906 C 144.339844 167.542969 144.523438 167.667969 144.738281 167.753906 C 144.949219 167.84375 145.171875 167.886719 145.398438 167.886719 L 153.488281 167.886719 C 153.71875 167.886719 153.941406 167.84375 154.152344 167.753906 C 154.363281 167.667969 154.550781 167.542969 154.714844 167.378906 C 154.875 167.214844 155 167.03125 155.089844 166.816406 C 155.175781 166.605469 155.222656 166.382812 155.222656 166.15625 L 155.222656 158.066406 C 155.222656 157.835938 155.175781 157.613281 155.089844 157.402344 C 155 157.191406 154.875 157.003906 154.714844 156.839844 C 154.550781 156.679688 154.363281 156.554688 154.152344 156.464844 C 153.941406 156.378906 153.71875 156.332031 153.488281 156.332031 L 150.253906 156.332031 C 150.292969 154.535156 150.460938 152.746094 150.757812 150.972656 C 151.058594 149.199219 151.480469 147.453125 152.03125 145.742188 C 152.582031 144.027344 153.253906 142.363281 154.046875 140.75 C 154.839844 139.132812 155.746094 137.582031 156.761719 136.101562 C 157.78125 134.617188 158.898438 133.210938 160.121094 131.890625 C 161.339844 130.570312 162.652344 129.34375 164.050781 128.210938 C 165.449219 127.078125 166.921875 126.054688 168.46875 125.136719 C 170.019531 124.21875 171.625 123.417969 173.289062 122.734375 C 173.492188 122.648438 173.636719 122.507812 173.722656 122.300781 C 173.808594 122.097656 173.808594 121.894531 173.722656 121.691406 C 173.640625 121.484375 173.496094 121.339844 173.289062 121.253906 C 173.085938 121.171875 172.882812 121.167969 172.679688 121.253906 Z M 153.488281 157.933594 C 153.578125 157.933594 153.621094 157.976562 153.621094 158.066406 L 153.621094 166.15625 C 153.621094 166.242188 153.578125 166.285156 153.488281 166.285156 L 145.398438 166.285156 C 145.3125 166.285156 145.269531 166.242188 145.269531 166.15625 L 145.269531 158.066406 C 145.269531 157.976562 145.3125 157.933594 145.398438 157.933594 Z M 153.488281 157.933594 " fill-opacity="1" fill-rule="nonzero"/><g clip-path="url(#8787ff64db)"><path fill="#242424" d="M 230.386719 113.375 C 229.6875 113.375 229.015625 113.5 228.363281 113.742188 C 227.710938 113.988281 227.121094 114.339844 226.597656 114.796875 C 226.070312 115.253906 225.640625 115.785156 225.308594 116.398438 C 224.976562 117.011719 224.761719 117.660156 224.664062 118.351562 L 193.203125 118.351562 L 193.203125 115.105469 C 193.203125 114.878906 193.160156 114.65625 193.070312 114.445312 C 192.984375 114.230469 192.859375 114.042969 192.695312 113.882812 C 192.535156 113.71875 192.347656 113.59375 192.132812 113.507812 C 191.921875 113.417969 191.703125 113.375 191.472656 113.375 L 183.382812 113.375 C 183.152344 113.375 182.929688 113.417969 182.71875 113.507812 C 182.507812 113.59375 182.320312 113.71875 182.15625 113.882812 C 181.996094 114.042969 181.871094 114.230469 181.78125 114.445312 C 181.695312 114.65625 181.648438 114.878906 181.648438 115.105469 L 181.648438 118.351562 L 150.1875 118.351562 C 150.15625 118.113281 150.105469 117.875 150.042969 117.644531 C 149.980469 117.410156 149.902344 117.183594 149.8125 116.960938 C 149.71875 116.734375 149.617188 116.519531 149.496094 116.308594 C 149.378906 116.101562 149.246094 115.898438 149.101562 115.703125 C 148.957031 115.511719 148.804688 115.328125 148.636719 115.152344 C 148.46875 114.980469 148.292969 114.816406 148.105469 114.664062 C 147.917969 114.511719 147.722656 114.371094 147.515625 114.246094 C 147.3125 114.117188 147.097656 114.003906 146.878906 113.902344 C 146.660156 113.800781 146.4375 113.714844 146.207031 113.644531 C 145.976562 113.570312 145.742188 113.511719 145.503906 113.46875 C 145.269531 113.425781 145.027344 113.398438 144.789062 113.382812 C 144.546875 113.371094 144.308594 113.371094 144.066406 113.390625 C 143.824219 113.40625 143.585938 113.4375 143.351562 113.484375 C 143.113281 113.53125 142.878906 113.589844 142.652344 113.667969 C 142.421875 113.742188 142.199219 113.832031 141.980469 113.9375 C 141.765625 114.039062 141.554688 114.15625 141.351562 114.289062 C 141.148438 114.417969 140.953125 114.558594 140.769531 114.714844 C 140.582031 114.871094 140.40625 115.035156 140.242188 115.210938 C 140.078125 115.386719 139.925781 115.574219 139.785156 115.769531 C 139.644531 115.964844 139.515625 116.167969 139.398438 116.378906 C 139.28125 116.589844 139.179688 116.808594 139.09375 117.035156 C 139.003906 117.257812 138.929688 117.488281 138.871094 117.722656 C 138.8125 117.953125 138.765625 118.191406 138.734375 118.429688 C 138.707031 118.671875 138.691406 118.910156 138.691406 119.152344 C 138.691406 119.394531 138.707031 119.632812 138.734375 119.871094 C 138.765625 120.113281 138.8125 120.347656 138.871094 120.582031 C 138.929688 120.816406 139.003906 121.042969 139.09375 121.269531 C 139.179688 121.492188 139.28125 121.710938 139.398438 121.921875 C 139.515625 122.136719 139.644531 122.339844 139.785156 122.535156 C 139.925781 122.730469 140.078125 122.914062 140.242188 123.09375 C 140.40625 123.269531 140.582031 123.433594 140.769531 123.589844 C 140.953125 123.742188 141.148438 123.886719 141.351562 124.015625 C 141.554688 124.144531 141.765625 124.261719 141.980469 124.367188 C 142.199219 124.46875 142.421875 124.558594 142.652344 124.636719 C 142.878906 124.710938 143.113281 124.773438 143.351562 124.820312 C 143.585938 124.867188 143.824219 124.898438 144.066406 124.914062 C 144.308594 124.929688 144.546875 124.933594 144.789062 124.917969 C 145.027344 124.90625 145.269531 124.878906 145.503906 124.835938 C 145.742188 124.792969 145.976562 124.734375 146.207031 124.660156 C 146.4375 124.585938 146.660156 124.5 146.878906 124.398438 C 147.097656 124.300781 147.3125 124.183594 147.515625 124.058594 C 147.722656 123.929688 147.917969 123.792969 148.105469 123.640625 C 148.292969 123.488281 148.46875 123.324219 148.636719 123.152344 C 148.804688 122.976562 148.957031 122.792969 149.101562 122.597656 C 149.246094 122.40625 149.378906 122.203125 149.496094 121.992188 C 149.617188 121.785156 149.71875 121.566406 149.8125 121.34375 C 149.902344 121.121094 149.980469 120.890625 150.042969 120.660156 C 150.105469 120.425781 150.15625 120.191406 150.1875 119.953125 L 181.648438 119.953125 L 181.648438 123.195312 C 181.648438 123.425781 181.695312 123.648438 181.78125 123.859375 C 181.871094 124.070312 181.996094 124.257812 182.15625 124.421875 C 182.320312 124.582031 182.507812 124.707031 182.71875 124.796875 C 182.929688 124.882812 183.152344 124.929688 183.382812 124.929688 L 191.472656 124.929688 C 191.703125 124.929688 191.921875 124.882812 192.132812 124.796875 C 192.347656 124.707031 192.535156 124.582031 192.695312 124.421875 C 192.859375 124.257812 192.984375 124.070312 193.070312 123.859375 C 193.160156 123.648438 193.203125 123.425781 193.203125 123.195312 L 193.203125 120.398438 C 210.910156 123.160156 224.214844 138.378906 224.597656 156.332031 L 221.363281 156.332031 C 221.132812 156.332031 220.914062 156.378906 220.699219 156.464844 C 220.488281 156.554688 220.300781 156.679688 220.140625 156.839844 C 219.976562 157.003906 219.851562 157.191406 219.765625 157.402344 C 219.675781 157.613281 219.632812 157.835938 219.632812 158.066406 L 219.632812 166.15625 C 219.632812 166.382812 219.675781 166.605469 219.765625 166.816406 C 219.851562 167.03125 219.976562 167.214844 220.140625 167.378906 C 220.300781 167.542969 220.488281 167.667969 220.699219 167.753906 C 220.914062 167.84375 221.132812 167.886719 221.363281 167.886719 L 229.453125 167.886719 C 229.683594 167.886719 229.902344 167.84375 230.117188 167.753906 C 230.328125 167.667969 230.515625 167.542969 230.675781 167.378906 C 230.839844 167.214844 230.964844 167.027344 231.054688 166.816406 C 231.140625 166.605469 231.183594 166.382812 231.183594 166.15625 L 231.183594 158.066406 C 231.183594 157.835938 231.140625 157.613281 231.054688 157.402344 C 230.964844 157.191406 230.839844 157.003906 230.675781 156.839844 C 230.515625 156.679688 230.328125 156.554688 230.117188 156.464844 C 229.902344 156.378906 229.683594 156.332031 229.453125 156.332031 L 226.199219 156.332031 C 226.15625 154.292969 225.957031 152.265625 225.59375 150.253906 C 225.230469 148.246094 224.710938 146.277344 224.039062 144.347656 C 223.367188 142.421875 222.546875 140.558594 221.578125 138.757812 C 220.613281 136.960938 219.507812 135.25 218.269531 133.625 C 217.035156 132 215.675781 130.484375 214.199219 129.074219 C 212.722656 127.664062 211.144531 126.378906 209.464844 125.214844 C 207.785156 124.054688 206.023438 123.035156 204.179688 122.152344 C 202.339844 121.269531 200.441406 120.535156 198.484375 119.953125 L 224.664062 119.953125 C 224.714844 120.316406 224.800781 120.671875 224.921875 121.019531 C 225.039062 121.371094 225.191406 121.703125 225.375 122.023438 C 225.554688 122.339844 225.769531 122.640625 226.007812 122.917969 C 226.246094 123.199219 226.511719 123.453125 226.800781 123.679688 C 227.089844 123.910156 227.398438 124.109375 227.722656 124.277344 C 228.050781 124.445312 228.390625 124.585938 228.742188 124.6875 C 229.09375 124.792969 229.457031 124.863281 229.820312 124.898438 C 230.1875 124.9375 230.554688 124.9375 230.921875 124.902344 C 231.285156 124.867188 231.648438 124.800781 232 124.695312 C 232.351562 124.59375 232.695312 124.457031 233.019531 124.289062 C 233.347656 124.121094 233.65625 123.925781 233.945312 123.699219 C 234.238281 123.472656 234.503906 123.21875 234.742188 122.941406 C 234.984375 122.664062 235.199219 122.367188 235.382812 122.046875 C 235.566406 121.730469 235.71875 121.394531 235.839844 121.046875 C 235.960938 120.699219 236.050781 120.34375 236.101562 119.980469 C 236.15625 119.617188 236.171875 119.25 236.15625 118.882812 C 236.136719 118.515625 236.085938 118.152344 236 117.796875 C 235.914062 117.4375 235.792969 117.089844 235.640625 116.757812 C 235.488281 116.421875 235.304688 116.105469 235.09375 115.804688 C 234.878906 115.503906 234.640625 115.226562 234.375 114.972656 C 234.109375 114.71875 233.820312 114.492188 233.511719 114.292969 C 233.199219 114.09375 232.875 113.925781 232.535156 113.789062 C 232.191406 113.652344 231.839844 113.550781 231.480469 113.480469 C 231.117188 113.410156 230.753906 113.375 230.386719 113.375 Z M 144.46875 123.328125 C 144.460938 123.328125 144.453125 123.328125 144.445312 123.328125 C 145.324219 122.4375 145.90625 120.902344 145.90625 119.152344 C 145.90625 117.402344 145.324219 115.863281 144.445312 114.976562 C 144.453125 114.976562 144.460938 114.976562 144.46875 114.976562 C 144.742188 114.976562 145.015625 115.003906 145.28125 115.054688 C 145.550781 115.109375 145.8125 115.1875 146.066406 115.292969 C 146.320312 115.398438 146.558594 115.527344 146.789062 115.679688 C 147.015625 115.832031 147.226562 116.003906 147.421875 116.199219 C 147.613281 116.394531 147.789062 116.605469 147.941406 116.832031 C 148.09375 117.058594 148.222656 117.300781 148.328125 117.554688 C 148.429688 117.808594 148.511719 118.066406 148.5625 118.335938 C 148.617188 118.605469 148.644531 118.878906 148.644531 119.152344 C 148.644531 119.425781 148.617188 119.699219 148.5625 119.964844 C 148.511719 120.234375 148.429688 120.496094 148.328125 120.75 C 148.222656 121.003906 148.09375 121.242188 147.941406 121.472656 C 147.789062 121.699219 147.613281 121.910156 147.421875 122.105469 C 147.226562 122.296875 147.015625 122.472656 146.789062 122.625 C 146.558594 122.777344 146.320312 122.90625 146.066406 123.007812 C 145.8125 123.113281 145.550781 123.195312 145.28125 123.246094 C 145.015625 123.300781 144.742188 123.328125 144.46875 123.328125 Z M 191.601562 123.195312 C 191.601562 123.285156 191.558594 123.328125 191.472656 123.328125 L 183.382812 123.328125 C 183.292969 123.328125 183.25 123.285156 183.25 123.195312 L 183.25 115.105469 C 183.25 115.019531 183.292969 114.976562 183.382812 114.976562 L 191.472656 114.976562 C 191.558594 114.976562 191.601562 115.019531 191.601562 115.105469 Z M 229.453125 157.933594 C 229.539062 157.933594 229.585938 157.976562 229.585938 158.066406 L 229.585938 166.15625 C 229.585938 166.242188 229.539062 166.285156 229.453125 166.285156 L 221.363281 166.285156 C 221.277344 166.285156 221.234375 166.242188 221.234375 166.15625 L 221.234375 158.066406 C 221.234375 157.976562 221.277344 157.933594 221.363281 157.933594 Z M 230.386719 123.328125 C 230.378906 123.328125 230.371094 123.328125 230.363281 123.328125 C 231.242188 122.4375 231.824219 120.902344 231.824219 119.152344 C 231.824219 117.402344 231.242188 115.863281 230.363281 114.976562 C 230.371094 114.976562 230.378906 114.976562 230.382812 114.976562 C 230.660156 114.976562 230.929688 115.003906 231.199219 115.054688 C 231.46875 115.109375 231.730469 115.1875 231.984375 115.292969 C 232.234375 115.398438 232.476562 115.527344 232.703125 115.679688 C 232.933594 115.832031 233.144531 116.003906 233.335938 116.199219 C 233.53125 116.394531 233.703125 116.605469 233.855469 116.832031 C 234.007812 117.058594 234.136719 117.300781 234.242188 117.554688 C 234.347656 117.808594 234.425781 118.066406 234.480469 118.335938 C 234.535156 118.605469 234.5625 118.878906 234.5625 119.152344 C 234.5625 119.425781 234.535156 119.699219 234.480469 119.964844 C 234.425781 120.234375 234.347656 120.496094 234.242188 120.75 C 234.136719 121.003906 234.007812 121.242188 233.855469 121.472656 C 233.703125 121.699219 233.53125 121.910156 233.335938 122.105469 C 233.144531 122.296875 232.933594 122.472656 232.703125 122.625 C 232.476562 122.777344 232.234375 122.90625 231.984375 123.007812 C 231.730469 123.113281 231.46875 123.195312 231.199219 123.246094 C 230.929688 123.300781 230.660156 123.328125 230.382812 123.328125 Z M 230.386719 123.328125 " fill-opacity="1" fill-rule="nonzero"/></g><g fill="#242424" fill-opacity="1"><g transform="translate(130.016532, 248.469989)"><g><path d="M 14.03125 -11.9375 L 13.609375 -11.9375 C 13.503906 -12.800781 13.1875 -13.4375 12.65625 -13.84375 C 12.132812 -14.257812 11.34375 -14.46875 10.28125 -14.46875 L 5.46875 -14.46875 L 5.46875 -8.46875 L 9.234375 -8.46875 C 10.035156 -8.46875 10.59375 -8.609375 10.90625 -8.890625 C 11.226562 -9.179688 11.390625 -9.640625 11.390625 -10.265625 L 11.390625 -10.609375 L 11.78125 -10.609375 L 11.78125 -5.421875 L 11.390625 -5.421875 L 11.390625 -5.6875 C 11.390625 -6.34375 11.234375 -6.820312 10.921875 -7.125 C 10.609375 -7.425781 10.117188 -7.578125 9.453125 -7.578125 L 5.46875 -7.578125 L 5.46875 -2.21875 C 5.46875 -1.507812 5.644531 -1.03125 6 -0.78125 C 6.351562 -0.53125 6.910156 -0.40625 7.671875 -0.40625 L 7.671875 0 L 0.953125 0 L 0.953125 -0.40625 L 1.078125 -0.40625 C 1.742188 -0.40625 2.242188 -0.539062 2.578125 -0.8125 C 2.910156 -1.082031 3.078125 -1.554688 3.078125 -2.234375 L 3.078125 -13.09375 C 3.078125 -13.71875 2.90625 -14.160156 2.5625 -14.421875 C 2.226562 -14.691406 1.691406 -14.828125 0.953125 -14.828125 L 0.953125 -15.21875 L 13.875 -15.21875 Z M 14.03125 -11.9375 "/></g></g></g><g fill="#242424" fill-opacity="1"><g transform="translate(148.255632, 248.469989)"><g><path d="M 7.78125 -14.828125 C 7.15625 -14.828125 6.679688 -14.769531 6.359375 -14.65625 C 6.035156 -14.539062 5.804688 -14.335938 5.671875 -14.046875 C 5.535156 -13.765625 5.46875 -13.351562 5.46875 -12.8125 L 5.46875 -2.21875 C 5.46875 -1.71875 5.546875 -1.335938 5.703125 -1.078125 C 5.867188 -0.816406 6.113281 -0.640625 6.4375 -0.546875 C 6.769531 -0.460938 7.21875 -0.414062 7.78125 -0.40625 L 7.78125 0 L 0.78125 0 L 0.78125 -0.40625 C 1.363281 -0.414062 1.8125 -0.460938 2.125 -0.546875 C 2.445312 -0.640625 2.6875 -0.816406 2.84375 -1.078125 C 3 -1.335938 3.078125 -1.722656 3.078125 -2.234375 L 3.078125 -12.8125 C 3.078125 -13.351562 3.003906 -13.765625 2.859375 -14.046875 C 2.722656 -14.328125 2.492188 -14.519531 2.171875 -14.625 C 1.859375 -14.738281 1.394531 -14.804688 0.78125 -14.828125 L 0.78125 -15.21875 L 7.78125 -15.21875 Z M 7.78125 -14.828125 "/></g></g></g><g fill="#242424" fill-opacity="1"><g transform="translate(160.245538, 248.469989)"><g><path d="M 5.984375 -14.828125 C 5.078125 -14.796875 4.625 -14.46875 4.625 -13.84375 C 4.625 -13.632812 4.660156 -13.410156 4.734375 -13.171875 C 4.816406 -12.941406 4.988281 -12.457031 5.25 -11.71875 L 8.015625 -4.015625 L 8.0625 -4.015625 L 10.5 -10.796875 L 9.640625 -13.046875 C 9.460938 -13.503906 9.300781 -13.847656 9.15625 -14.078125 C 9.019531 -14.304688 8.832031 -14.476562 8.59375 -14.59375 C 8.351562 -14.71875 8.019531 -14.796875 7.59375 -14.828125 L 7.59375 -15.21875 L 13.640625 -15.21875 L 13.640625 -14.828125 C 13.191406 -14.773438 12.828125 -14.671875 12.546875 -14.515625 C 12.273438 -14.367188 12.140625 -14.109375 12.140625 -13.734375 C 12.140625 -13.273438 12.273438 -12.722656 12.546875 -12.078125 L 15.640625 -4.015625 L 18.5625 -12.25 C 18.726562 -12.695312 18.832031 -13.007812 18.875 -13.1875 C 18.914062 -13.375 18.9375 -13.578125 18.9375 -13.796875 C 18.9375 -14.460938 18.40625 -14.804688 17.34375 -14.828125 L 17.34375 -15.21875 L 21.75 -15.21875 L 21.75 -14.828125 C 21.25 -14.804688 20.84375 -14.597656 20.53125 -14.203125 C 20.226562 -13.804688 19.882812 -13.0625 19.5 -11.96875 L 15.15625 0.3125 L 14.734375 0.3125 L 11.03125 -9.421875 L 7.484375 0.3125 L 7.140625 0.3125 L 2.328125 -12.734375 C 2.085938 -13.367188 1.875 -13.828125 1.6875 -14.109375 C 1.507812 -14.390625 1.316406 -14.570312 1.109375 -14.65625 C 0.898438 -14.738281 0.582031 -14.796875 0.15625 -14.828125 L 0.15625 -15.21875 L 5.984375 -15.21875 Z M 5.984375 -14.828125 "/></g></g></g><g fill="#242424" fill-opacity="1"><g transform="translate(185.642391, 248.469989)"><g><path d="M 8.53125 -15.546875 C 9.9375 -15.546875 11.226562 -15.191406 12.40625 -14.484375 C 13.59375 -13.773438 14.53125 -12.8125 15.21875 -11.59375 C 15.914062 -10.375 16.265625 -9.039062 16.265625 -7.59375 C 16.265625 -6.164062 15.914062 -4.84375 15.21875 -3.625 C 14.53125 -2.40625 13.59375 -1.441406 12.40625 -0.734375 C 11.226562 -0.0234375 9.9375 0.328125 8.53125 0.328125 C 7.125 0.328125 5.828125 -0.0234375 4.640625 -0.734375 C 3.460938 -1.441406 2.53125 -2.40625 1.84375 -3.625 C 1.15625 -4.84375 0.8125 -6.164062 0.8125 -7.59375 C 0.8125 -9.039062 1.15625 -10.375 1.84375 -11.59375 C 2.53125 -12.8125 3.460938 -13.773438 4.640625 -14.484375 C 5.828125 -15.191406 7.125 -15.546875 8.53125 -15.546875 Z M 3.59375 -7.59375 C 3.59375 -6.175781 3.796875 -4.929688 4.203125 -3.859375 C 4.609375 -2.796875 5.179688 -1.972656 5.921875 -1.390625 C 6.671875 -0.804688 7.539062 -0.515625 8.53125 -0.515625 C 9.519531 -0.515625 10.390625 -0.804688 11.140625 -1.390625 C 11.898438 -1.972656 12.484375 -2.796875 12.890625 -3.859375 C 13.296875 -4.929688 13.5 -6.175781 13.5 -7.59375 C 13.5 -8.988281 13.296875 -10.222656 12.890625 -11.296875 C 12.492188 -12.378906 11.921875 -13.21875 11.171875 -13.8125 C 10.429688 -14.414062 9.546875 -14.71875 8.515625 -14.71875 C 7.492188 -14.71875 6.613281 -14.410156 5.875 -13.796875 C 5.132812 -13.191406 4.566406 -12.347656 4.171875 -11.265625 C 3.785156 -10.191406 3.59375 -8.96875 3.59375 -7.59375 Z M 3.59375 -7.59375 "/></g></g></g><g fill="#242424" fill-opacity="1"><g transform="translate(206.186148, 248.469989)"><g><path d="M 13.109375 -11.25 C 13.109375 -10.320312 12.789062 -9.519531 12.15625 -8.84375 C 11.53125 -8.175781 10.566406 -7.679688 9.265625 -7.359375 L 12.78125 -2.984375 C 13.207031 -2.453125 13.566406 -2.023438 13.859375 -1.703125 C 14.160156 -1.390625 14.53125 -1.101562 14.96875 -0.84375 C 15.40625 -0.59375 15.890625 -0.445312 16.421875 -0.40625 L 16.421875 0 L 12.453125 0 L 6.71875 -7.140625 L 5.25 -7.140625 L 5.25 -2.1875 C 5.25 -1.539062 5.414062 -1.082031 5.75 -0.8125 C 6.082031 -0.539062 6.601562 -0.40625 7.3125 -0.40625 L 7.40625 -0.40625 L 7.40625 0 L 0.75 0 L 0.75 -0.40625 C 1.457031 -0.40625 1.984375 -0.53125 2.328125 -0.78125 C 2.679688 -1.03125 2.859375 -1.476562 2.859375 -2.125 L 2.859375 -13.140625 C 2.859375 -13.734375 2.679688 -14.160156 2.328125 -14.421875 C 1.984375 -14.691406 1.457031 -14.828125 0.75 -14.828125 L 0.75 -15.21875 L 7.859375 -15.21875 C 9.304688 -15.21875 10.539062 -14.890625 11.5625 -14.234375 C 12.59375 -13.585938 13.109375 -12.59375 13.109375 -11.25 Z M 5.25 -14.046875 L 5.25 -7.890625 L 5.8125 -7.890625 C 7.300781 -7.890625 8.425781 -8.179688 9.1875 -8.765625 C 9.957031 -9.347656 10.34375 -10.15625 10.34375 -11.1875 C 10.34375 -12.09375 10.050781 -12.863281 9.46875 -13.5 C 8.882812 -14.132812 8.0625 -14.453125 7 -14.453125 C 6.425781 -14.453125 5.84375 -14.316406 5.25 -14.046875 Z M 5.25 -14.046875 "/></g></g></g><g fill="#242424" fill-opacity="1"><g transform="translate(226.729905, 248.469989)"><g><path d="M 7.84375 -14.828125 C 7.03125 -14.828125 6.445312 -14.707031 6.09375 -14.46875 C 5.738281 -14.226562 5.5625 -13.734375 5.5625 -12.984375 L 5.5625 -7.828125 C 6.976562 -8.992188 8.320312 -10.1875 9.59375 -11.40625 C 10.863281 -12.632812 11.5 -13.546875 11.5 -14.140625 C 11.5 -14.390625 11.382812 -14.5625 11.15625 -14.65625 C 10.925781 -14.75 10.585938 -14.804688 10.140625 -14.828125 L 10.140625 -15.21875 L 15.734375 -15.21875 L 15.734375 -14.828125 L 15.546875 -14.828125 C 15.109375 -14.796875 14.6875 -14.679688 14.28125 -14.484375 C 13.882812 -14.296875 13.484375 -14.007812 13.078125 -13.625 C 12.835938 -13.40625 12.421875 -12.984375 11.828125 -12.359375 C 11.085938 -11.609375 10.4375 -10.957031 9.875 -10.40625 C 9.320312 -9.851562 8.644531 -9.226562 7.84375 -8.53125 L 13.53125 -2.90625 C 14.269531 -2.175781 14.867188 -1.640625 15.328125 -1.296875 C 15.785156 -0.953125 16.21875 -0.71875 16.625 -0.59375 C 17.03125 -0.46875 17.53125 -0.40625 18.125 -0.40625 L 18.125 0 L 10.28125 0 L 10.28125 -0.40625 C 10.675781 -0.40625 10.992188 -0.46875 11.234375 -0.59375 C 11.484375 -0.71875 11.609375 -0.910156 11.609375 -1.171875 C 11.609375 -1.347656 11.5625 -1.503906 11.46875 -1.640625 C 11.375 -1.773438 11.1875 -1.984375 10.90625 -2.265625 L 5.5625 -7.53125 L 5.5625 -2.21875 C 5.5625 -1.550781 5.726562 -1.082031 6.0625 -0.8125 C 6.394531 -0.550781 6.953125 -0.414062 7.734375 -0.40625 L 7.734375 0 L 0.890625 0 L 0.890625 -0.40625 C 1.742188 -0.414062 2.335938 -0.546875 2.671875 -0.796875 C 3.003906 -1.046875 3.171875 -1.535156 3.171875 -2.265625 L 3.171875 -12.984375 C 3.171875 -13.703125 2.988281 -14.1875 2.625 -14.4375 C 2.257812 -14.695312 1.679688 -14.828125 0.890625 -14.828125 L 0.890625 -15.21875 L 7.84375 -15.21875 Z M 7.84375 -14.828125 "/></g></g></g></svg>